<svg version="1.1" id="Layer_1" xmlns="http://www.w3.org/2000/svg" xmlns:xlink="http://www.w3.org/1999/xlink" x="0px" y="0px"
	 width="100%" viewBox="0 0 500 75" enable-background="new 0 0 500 75" xml:space="preserve">
<path fill="#FDFEFE" opacity="1.000000" stroke="none" 
	d="
M429.000000,1.000000 
	C452.989594,1.000000 476.979187,1.000000 500.968781,1.000000 
	C500.979187,1.156189 500.998718,1.312378 500.998749,1.468567 
	C501.000092,26.291132 501.000000,51.113697 501.000000,75.968132 
	C334.426849,75.968132 167.853683,75.968132 1.140258,75.968132 
	C1.140258,51.105045 1.140258,26.209040 1.140258,1.000000 
	C96.353996,1.000000 191.708344,1.000000 287.614563,1.462396 
	C288.166412,8.191654 288.166412,14.458518 288.166412,20.496899 
	C282.089722,19.587149 276.574738,18.385492 271.005493,18.026644 
	C264.610382,17.614582 260.030243,20.673801 258.015228,26.787123 
	C254.697693,36.852184 254.637695,47.114075 258.422546,57.083290 
	C260.973450,63.802334 266.948212,66.818657 274.144012,65.229431 
	C278.785736,64.204292 283.272125,62.475861 288.133514,60.967892 
	C289.379578,63.048794 289.956055,66.961159 294.710205,64.441628 
	C294.710205,62.754070 294.701904,60.789398 294.711517,58.824818 
	C294.805969,39.549870 294.903381,20.274937 295.000000,1.000000 
	C337.354218,1.000000 379.708466,1.000000 422.562073,1.282168 
	C423.102020,1.749160 423.142609,1.933984 423.126953,2.576397 
	C423.070770,23.620043 423.070770,44.206100 423.070770,64.854309 
	C425.410614,64.854309 427.299622,64.854309 429.618958,64.854309 
	C429.618958,54.239670 429.784973,43.947536 429.525726,33.666122 
	C429.439148,30.232985 430.612579,28.397369 433.702423,27.394308 
	C435.436462,26.831383 437.061462,25.841454 438.825104,25.475637 
	C450.890778,22.972980 454.887482,24.971874 454.429016,36.985870 
	C454.075714,46.243549 454.358582,55.525509 454.358582,64.861679 
	C456.870728,64.861679 458.767487,64.861679 460.999756,64.861679 
	C460.999756,54.584965 461.011719,44.628868 460.996826,34.672817 
	C460.976196,20.895031 451.042419,14.236881 438.129730,19.401947 
	C435.432220,20.480951 432.864258,21.883799 429.645447,23.419434 
	C429.645447,19.220091 429.711578,15.743839 429.626862,12.271267 
	C429.542053,8.793859 429.306519,5.320129 429.156250,1.624919 
	C429.175446,1.405051 429.000000,1.000000 429.000000,1.000000 
M7.835876,57.707844 
	C8.244989,58.210064 8.654103,58.712284 9.306805,59.814228 
	C17.929047,71.728935 29.871538,76.206055 43.892509,73.464401 
	C57.250519,70.852386 66.562386,62.804821 70.601006,48.493988 
	C73.981674,32.085003 68.559044,18.129734 55.616066,9.929893 
	C43.362976,2.167121 28.031900,2.792072 16.379843,11.529303 
	C2.000600,22.311499 -2.040695,43.990051 7.919786,57.074894 
	C7.919786,57.074894 7.853991,57.039867 7.835876,57.707844 
M119.476791,18.834778 
	C116.856247,18.834778 114.235703,18.834778 111.352943,18.834778 
	C111.248177,20.597204 111.111679,21.889902 111.104500,23.183319 
	C111.068459,29.677799 111.139366,36.173771 111.023460,42.666557 
	C110.958519,46.304398 109.150566,48.793030 105.317627,48.915012 
	C101.646622,49.031845 99.966965,46.566864 99.554970,43.257305 
	C99.268616,40.957020 99.310432,38.609631 99.297600,36.282780 
	C99.265930,30.541523 99.287216,24.799971 99.287216,19.170670 
	C93.378189,19.170670 88.304802,19.170670 83.069572,19.170670 
	C83.069572,28.469189 82.616287,37.463085 83.189056,46.391155 
	C83.843872,56.598042 90.641708,63.451694 100.705933,65.351418 
	C112.230583,67.526810 119.828545,63.396217 126.810555,50.961678 
	C131.363205,60.196541 138.599701,65.618141 148.848053,65.746033 
	C159.037308,65.873177 166.112885,60.172924 171.141235,51.294189 
	C176.556763,62.852547 184.012207,66.744156 196.234772,64.739616 
	C196.234772,59.669880 196.234772,54.555252 196.234772,49.456108 
	C187.334869,47.023552 186.964874,46.529774 186.958252,37.056564 
	C186.953583,30.395218 186.957260,23.733868 186.957245,17.072519 
	C186.957230,13.832584 186.957245,10.592649 186.957245,7.430616 
	C181.008743,7.430616 175.909149,7.430616 170.153900,7.430616 
	C170.153900,15.008433 170.153900,22.324934 170.153900,31.013153 
	C164.483963,22.560944 157.795639,18.286467 149.036514,18.219210 
	C140.146057,18.150946 133.389725,22.611801 127.822609,30.518532 
	C127.619759,25.965355 127.467850,22.555777 127.302071,18.834702 
	C124.741158,18.834702 122.590073,18.834702 119.476791,18.834778 
M343.603485,45.647675 
	C349.266785,45.633663 354.931274,45.689175 360.593048,45.589088 
	C368.761780,45.444675 372.580109,42.334465 372.972839,35.680447 
	C373.590088,25.222895 370.093445,19.626041 361.799500,18.813215 
	C357.044159,18.347181 352.179016,18.614885 347.391907,18.954813 
	C341.068878,19.403803 336.801483,23.277328 336.295807,29.264507 
	C335.560547,37.969830 335.577911,46.835354 336.344421,55.538315 
	C336.892792,61.764290 340.802795,65.209709 347.112885,65.394051 
	C355.318268,65.633759 363.557190,64.725670 372.181976,64.291412 
	C371.973083,61.423141 371.860657,59.879753 371.799957,59.046303 
	C364.556183,59.046303 357.911072,59.088699 351.266754,59.035492 
	C343.104797,58.970131 339.771362,53.819786 343.603485,45.647675 
M236.817230,18.575485 
	C232.998154,18.587816 229.136688,18.240221 225.368439,18.684063 
	C216.272934,19.755363 212.895920,22.578251 211.887985,31.802057 
	C211.083679,39.162327 211.303589,46.754482 212.086685,54.135727 
	C212.931183,62.095558 217.193481,65.651726 225.187286,65.647240 
	C231.475067,65.643707 237.757690,64.625099 244.051453,64.183311 
	C247.912735,63.912270 248.864456,62.043507 247.549301,58.366009 
	C244.391220,58.576260 241.276688,58.862392 238.156006,58.969917 
	C234.827484,59.084610 231.492722,59.074059 228.161438,59.041695 
	C219.178375,58.954414 216.337234,55.099785 218.576385,45.606346 
	C224.624252,45.606346 230.765427,45.676094 236.904083,45.581753 
	C240.976257,45.519173 244.970108,44.975445 247.471329,41.143810 
	C252.779724,33.011864 247.211014,20.301130 236.817230,18.575485 
M408.390503,24.986439 
	C410.504486,24.986439 412.618439,24.986439 414.732422,24.986439 
	C415.029388,24.497374 415.326355,24.008308 415.623322,23.519241 
	C414.380280,22.358747 413.272461,20.418224 411.870361,20.175119 
	C406.310059,19.211040 400.671326,18.474159 395.036163,18.221138 
	C387.222504,17.870300 382.115845,21.194229 381.208984,28.908457 
	C380.193970,37.542049 380.270813,46.473797 381.249969,55.119801 
	C382.074799,62.403080 386.717163,65.690727 394.185242,65.641624 
	C400.137146,65.602501 406.084900,64.593903 412.029968,63.972691 
	C415.808929,63.577824 416.238220,61.483002 415.156738,59.112671 
	C408.224976,59.112671 401.754425,59.034142 395.286896,59.139381 
	C390.728180,59.213566 387.513428,57.047417 387.213043,52.719814 
	C386.710175,45.475334 386.768646,38.147335 387.241150,30.896866 
	C387.512848,26.727798 390.507111,24.639334 394.930786,24.836880 
	C399.086731,25.022465 403.255157,24.927851 408.390503,24.986439 
M310.727875,58.502289 
	C314.351379,65.185524 317.813416,66.387901 328.135651,64.506409 
	C329.162842,61.346737 327.692139,60.188469 324.690918,59.557060 
	C321.221405,58.827148 316.528595,58.604912 316.304840,53.947685 
	C315.847046,44.417389 316.167511,34.849716 316.167511,24.890263 
	C320.618164,24.890263 324.714478,24.890263 328.789368,24.890263 
	C328.789368,22.567972 328.789368,20.678782 328.789368,18.268208 
	C324.392181,18.268208 320.312225,18.268208 315.721069,18.268208 
	C315.721069,13.856110 315.721069,9.951599 315.721069,6.261273 
	C311.161163,4.441726 309.992737,6.681643 310.152802,10.057397 
	C310.436340,16.036083 308.581177,19.987810 301.825592,19.951378 
	C301.527130,19.949768 301.227234,20.209946 300.752991,20.429039 
	C300.752991,21.770596 300.752991,23.188713 300.752991,24.832336 
	C303.578461,24.975872 306.152863,25.106651 309.084747,25.255592 
	C309.084747,30.868879 308.915283,36.166283 309.131683,41.447880 
	C309.355072,46.899765 309.953705,52.336281 310.727875,58.502289 
M484.183594,65.183968 
	C489.900116,65.281380 486.973389,61.596420 487.214233,58.922531 
	C480.685730,58.922531 474.536957,58.915356 468.388245,58.933369 
	C467.757111,58.935215 467.126434,59.087662 466.447754,59.176483 
	C466.447754,61.250854 466.447754,63.109642 466.447754,65.184280 
	C472.290253,65.184280 477.771393,65.184280 484.183594,65.183968 
z"/>
<path fill="#14A3BC" opacity="1.000000" stroke="none" 
	d="
M294.562500,1.000000 
	C294.903381,20.274937 294.805969,39.549870 294.711517,58.824818 
	C294.701904,60.789398 294.710205,62.754070 294.710205,64.441628 
	C289.956055,66.961159 289.379578,63.048794 288.133514,60.967892 
	C283.272125,62.475861 278.785736,64.204292 274.144012,65.229431 
	C266.948212,66.818657 260.973450,63.802334 258.422546,57.083290 
	C254.637695,47.114075 254.697693,36.852184 258.015228,26.787123 
	C260.030243,20.673801 264.610382,17.614582 271.005493,18.026644 
	C276.574738,18.385492 282.089722,19.587149 288.166412,20.496899 
	C288.166412,14.458518 288.166412,8.191654 288.083191,1.462396 
	C290.041656,1.000000 292.083344,1.000000 294.562500,1.000000 
M286.615234,55.874832 
	C287.107056,54.423435 287.945221,52.990372 288.023193,51.517071 
	C288.224823,47.708195 288.091064,43.881561 288.091095,40.062019 
	C288.091125,24.516672 288.091095,24.516731 272.255249,24.462006 
	C271.923187,24.460857 271.591095,24.450230 271.259033,24.450083 
	C267.462128,24.448412 264.244171,26.203545 264.024414,29.895279 
	C263.558197,37.727566 263.500671,45.649597 264.175354,53.457077 
	C264.518311,57.425766 268.024384,59.689304 272.281464,59.015617 
	C276.828735,58.296001 281.304321,57.123333 286.615234,55.874832 
z"/>
<path fill="#7CCCDA" opacity="1.000000" stroke="none" 
	d="
M428.571564,1.000000 
	C429.000000,1.000000 429.175446,1.405051 428.729004,1.657997 
	C426.582764,1.980232 424.882965,2.049520 423.183167,2.118808 
	C423.142609,1.933984 423.102020,1.749160 423.030731,1.282168 
	C424.714386,1.000000 426.428741,1.000000 428.571564,1.000000 
z"/>
<path fill="#099EB9" opacity="1.000000" stroke="none" 
	d="
M119.957893,18.834740 
	C122.590073,18.834702 124.741158,18.834702 127.302071,18.834702 
	C127.467850,22.555777 127.619759,25.965355 127.822609,30.518532 
	C133.389725,22.611801 140.146057,18.150946 149.036514,18.219210 
	C157.795639,18.286467 164.483963,22.560944 170.153900,31.013153 
	C170.153900,22.324934 170.153900,15.008433 170.153900,7.430616 
	C175.909149,7.430616 181.008743,7.430616 186.957245,7.430616 
	C186.957245,10.592649 186.957230,13.832584 186.957245,17.072519 
	C186.957260,23.733868 186.953583,30.395218 186.958252,37.056564 
	C186.964874,46.529774 187.334869,47.023552 196.234772,49.456108 
	C196.234772,54.555252 196.234772,59.669880 196.234772,64.739616 
	C184.012207,66.744156 176.556763,62.852547 171.141235,51.294189 
	C166.112885,60.172924 159.037308,65.873177 148.848053,65.746033 
	C138.599701,65.618141 131.363205,60.196541 126.810555,50.961678 
	C119.828545,63.396217 112.230583,67.526810 100.705933,65.351418 
	C90.641708,63.451694 83.843872,56.598042 83.189056,46.391155 
	C82.616287,37.463085 83.069572,28.469189 83.069572,19.170670 
	C88.304802,19.170670 93.378189,19.170670 99.287216,19.170670 
	C99.287216,24.799971 99.265930,30.541523 99.297600,36.282780 
	C99.310432,38.609631 99.268616,40.957020 99.554970,43.257305 
	C99.966965,46.566864 101.646622,49.031845 105.317627,48.915012 
	C109.150566,48.793030 110.958519,46.304398 111.023460,42.666557 
	C111.139366,36.173771 111.068459,29.677799 111.104500,23.183319 
	C111.111679,21.889902 111.248177,20.597204 111.352943,18.834778 
	C114.235703,18.834778 116.856247,18.834778 119.957893,18.834740 
M149.351913,49.041084 
	C155.143860,47.273033 157.525894,43.219112 155.238174,38.878376 
	C153.572769,35.718403 150.839935,34.334160 147.368622,35.121758 
	C143.917923,35.904682 141.898926,38.249775 141.941803,41.868565 
	C141.992325,46.130711 144.202972,48.637318 149.351913,49.041084 
z"/>
<path fill="#FF7703" opacity="1.000000" stroke="none" 
	d="
M7.877793,57.136478 
	C-2.040695,43.990051 2.000600,22.311499 16.379843,11.529303 
	C28.031900,2.792072 43.362976,2.167121 55.616066,9.929893 
	C68.559044,18.129734 73.981674,32.085003 70.295105,48.394028 
	C68.660881,44.814140 67.332558,41.334209 65.994804,37.421440 
	C66.138847,24.296680 60.719238,14.533781 49.252686,9.323681 
	C38.309177,4.351239 27.327257,5.833215 18.028122,13.771526 
	C10.902933,19.854025 7.862868,27.985153 8.764300,37.683552 
	C14.578462,28.761862 22.734766,23.729511 33.026463,23.172379 
	C43.451477,22.608032 52.073006,26.760298 57.796642,35.622753 
	C43.890930,37.548695 37.487961,47.072433 38.443474,64.542435 
	C22.728546,64.396973 13.410500,56.052170 8.606969,41.496616 
	C8.117476,41.696232 7.627984,41.895847 7.138491,42.095459 
	C7.384925,47.109135 7.631360,52.122807 7.877793,57.136478 
z"/>
<path fill="#FF0307" opacity="1.000000" stroke="none" 
	d="
M7.898790,57.105686 
	C7.631360,52.122807 7.384925,47.109135 7.138491,42.095459 
	C7.627984,41.895847 8.117476,41.696232 8.606969,41.496616 
	C13.410500,56.052170 22.728546,64.396973 38.443474,64.542435 
	C37.487961,47.072433 43.890930,37.548695 58.170837,35.714203 
	C61.298702,36.404705 63.651474,37.129490 66.004242,37.854271 
	C67.332558,41.334209 68.660881,44.814140 70.054779,48.698738 
	C66.562386,62.804821 57.250519,70.852386 43.892509,73.464401 
	C29.871538,76.206055 17.929047,71.728935 9.183430,59.164772 
	C8.658034,58.023499 8.256012,57.531681 7.853991,57.039867 
	C7.853991,57.039867 7.919786,57.074894 7.898790,57.105686 
z"/>
<path fill="#11A2BB" opacity="1.000000" stroke="none" 
	d="
M343.120667,45.726189 
	C339.771362,53.819786 343.104797,58.970131 351.266754,59.035492 
	C357.911072,59.088699 364.556183,59.046303 371.799957,59.046303 
	C371.860657,59.879753 371.973083,61.423141 372.181976,64.291412 
	C363.557190,64.725670 355.318268,65.633759 347.112885,65.394051 
	C340.802795,65.209709 336.892792,61.764290 336.344421,55.538315 
	C335.577911,46.835354 335.560547,37.969830 336.295807,29.264507 
	C336.801483,23.277328 341.068878,19.403803 347.391907,18.954813 
	C352.179016,18.614885 357.044159,18.347181 361.799500,18.813215 
	C370.093445,19.626041 373.590088,25.222895 372.972839,35.680447 
	C372.580109,42.334465 368.761780,45.444675 360.593048,45.589088 
	C354.931274,45.689175 349.266785,45.633663 343.120667,45.726189 
M362.964203,38.936008 
	C368.054352,37.487499 366.598175,33.289501 365.845215,30.296947 
	C365.338379,28.282677 362.894745,26.158169 360.815674,25.302357 
	C358.666260,24.417601 355.909729,24.945198 353.419495,24.962076 
	C343.565063,25.028866 340.462219,28.830633 342.264557,39.020515 
	C348.812134,39.020515 355.432587,39.020515 362.964203,38.936008 
z"/>
<path fill="#11A2BB" opacity="1.000000" stroke="none" 
	d="
M237.240204,18.631954 
	C247.211014,20.301130 252.779724,33.011864 247.471329,41.143810 
	C244.970108,44.975445 240.976257,45.519173 236.904083,45.581753 
	C230.765427,45.676094 224.624252,45.606346 218.576385,45.606346 
	C216.337234,55.099785 219.178375,58.954414 228.161438,59.041695 
	C231.492722,59.074059 234.827484,59.084610 238.156006,58.969917 
	C241.276688,58.862392 244.391220,58.576260 247.549301,58.366009 
	C248.864456,62.043507 247.912735,63.912270 244.051453,64.183311 
	C237.757690,64.625099 231.475067,65.643707 225.187286,65.647240 
	C217.193481,65.651726 212.931183,62.095558 212.086685,54.135727 
	C211.303589,46.754482 211.083679,39.162327 211.887985,31.802057 
	C212.895920,22.578251 216.272934,19.755363 225.368439,18.684063 
	C229.136688,18.240221 232.998154,18.587816 237.240204,18.631954 
M220.003601,27.540897 
	C218.969421,31.090364 217.935242,34.639832 216.653320,39.039627 
	C224.201859,39.039627 230.493729,39.048958 236.785553,39.035458 
	C239.671356,39.029266 242.433609,38.450848 242.383942,34.879654 
	C242.335419,31.389545 243.338593,26.273939 238.547668,25.805559 
	C232.655380,25.229504 226.582443,26.501289 220.003601,27.540897 
z"/>
<path fill="#13A2BC" opacity="1.000000" stroke="none" 
	d="
M423.126953,2.576396 
	C424.882965,2.049520 426.582764,1.980232 428.709808,1.877865 
	C429.306519,5.320129 429.542053,8.793859 429.626862,12.271267 
	C429.711578,15.743839 429.645447,19.220091 429.645447,23.419434 
	C432.864258,21.883799 435.432220,20.480951 438.129730,19.401947 
	C451.042419,14.236881 460.976196,20.895031 460.996826,34.672817 
	C461.011719,44.628868 460.999756,54.584965 460.999756,64.861679 
	C458.767487,64.861679 456.870728,64.861679 454.358582,64.861679 
	C454.358582,55.525509 454.075714,46.243549 454.429016,36.985870 
	C454.887482,24.971874 450.890778,22.972980 438.825104,25.475637 
	C437.061462,25.841454 435.436462,26.831383 433.702423,27.394308 
	C430.612579,28.397369 429.439148,30.232985 429.525726,33.666122 
	C429.784973,43.947536 429.618958,54.239670 429.618958,64.854309 
	C427.299622,64.854309 425.410614,64.854309 423.070770,64.854309 
	C423.070770,44.206100 423.070770,23.620043 423.126953,2.576396 
z"/>
<path fill="#0FA1BB" opacity="1.000000" stroke="none" 
	d="
M407.904297,24.971481 
	C403.255157,24.927851 399.086731,25.022465 394.930786,24.836880 
	C390.507111,24.639334 387.512848,26.727798 387.241150,30.896866 
	C386.768646,38.147335 386.710175,45.475334 387.213043,52.719814 
	C387.513428,57.047417 390.728180,59.213566 395.286896,59.139381 
	C401.754425,59.034142 408.224976,59.112671 415.156738,59.112671 
	C416.238220,61.483002 415.808929,63.577824 412.029968,63.972691 
	C406.084900,64.593903 400.137146,65.602501 394.185242,65.641624 
	C386.717163,65.690727 382.074799,62.403080 381.249969,55.119801 
	C380.270813,46.473797 380.193970,37.542049 381.208984,28.908457 
	C382.115845,21.194229 387.222504,17.870300 395.036163,18.221138 
	C400.671326,18.474159 406.310059,19.211040 411.870361,20.175119 
	C413.272461,20.418224 414.380280,22.358747 415.623322,23.519241 
	C415.326355,24.008308 415.029388,24.497374 414.732422,24.986439 
	C412.618439,24.986439 410.504486,24.986439 407.904297,24.971481 
z"/>
<path fill="#13A2BC" opacity="1.000000" stroke="none" 
	d="
M310.558044,58.140903 
	C309.953705,52.336281 309.355072,46.899765 309.131683,41.447880 
	C308.915283,36.166283 309.084747,30.868879 309.084747,25.255592 
	C306.152863,25.106651 303.578461,24.975872 300.752991,24.832336 
	C300.752991,23.188713 300.752991,21.770596 300.752991,20.429039 
	C301.227234,20.209946 301.527130,19.949768 301.825592,19.951378 
	C308.581177,19.987810 310.436340,16.036083 310.152802,10.057397 
	C309.992737,6.681643 311.161163,4.441726 315.721069,6.261273 
	C315.721069,9.951599 315.721069,13.856110 315.721069,18.268208 
	C320.312225,18.268208 324.392181,18.268208 328.789368,18.268208 
	C328.789368,20.678782 328.789368,22.567972 328.789368,24.890263 
	C324.714478,24.890263 320.618164,24.890263 316.167511,24.890263 
	C316.167511,34.849716 315.847046,44.417389 316.304840,53.947685 
	C316.528595,58.604912 321.221405,58.827148 324.690918,59.557060 
	C327.692139,60.188469 329.162842,61.346737 328.135651,64.506409 
	C317.813416,66.387901 314.351379,65.185524 310.558044,58.140903 
z"/>
<path fill="#FF070D" opacity="1.000000" stroke="none" 
	d="
M483.718079,65.184128 
	C477.771393,65.184280 472.290253,65.184280 466.447754,65.184280 
	C466.447754,63.109642 466.447754,61.250854 466.447754,59.176483 
	C467.126434,59.087662 467.757111,58.935215 468.388245,58.933369 
	C474.536957,58.915356 480.685730,58.922531 487.214233,58.922531 
	C486.973389,61.596420 489.900116,65.281380 483.718079,65.184128 
z"/>
<path fill="#FF7703" opacity="1.000000" stroke="none" 
	d="
M7.844933,57.373856 
	C8.256012,57.531681 8.658034,58.023499 9.061636,58.864906 
	C8.654103,58.712284 8.244989,58.210064 7.844933,57.373856 
z"/>
<path fill="#FBFEFE" opacity="1.000000" stroke="none" 
	d="
M286.213196,56.011631 
	C281.304321,57.123333 276.828735,58.296001 272.281464,59.015617 
	C268.024384,59.689304 264.518311,57.425766 264.175354,53.457077 
	C263.500671,45.649597 263.558197,37.727566 264.024414,29.895279 
	C264.244171,26.203545 267.462128,24.448412 271.259033,24.450083 
	C271.591095,24.450230 271.923187,24.460857 272.255249,24.462006 
	C288.091095,24.516731 288.091125,24.516672 288.091095,40.062019 
	C288.091064,43.881561 288.224823,47.708195 288.023193,51.517071 
	C287.945221,52.990372 287.107056,54.423435 286.213196,56.011631 
z"/>
<path fill="#F7FCFD" opacity="1.000000" stroke="none" 
	d="
M148.952850,49.051449 
	C144.202972,48.637318 141.992325,46.130711 141.941803,41.868565 
	C141.898926,38.249775 143.917923,35.904682 147.368622,35.121758 
	C150.839935,34.334160 153.572769,35.718403 155.238174,38.878376 
	C157.525894,43.219112 155.143860,47.273033 148.952850,49.051449 
z"/>
<path fill="#FFC900" opacity="1.000000" stroke="none" 
	d="
M65.994804,37.421436 
	C63.651474,37.129490 61.298702,36.404705 58.571739,35.588470 
	C52.073006,26.760298 43.451477,22.608032 33.026463,23.172379 
	C22.734766,23.729511 14.578462,28.761862 8.764300,37.683552 
	C7.862868,27.985153 10.902933,19.854025 18.028122,13.771526 
	C27.327257,5.833215 38.309177,4.351239 49.252686,9.323681 
	C60.719238,14.533781 66.138847,24.296680 65.994804,37.421436 
z"/>
<path fill="#FBFDFE" opacity="1.000000" stroke="none" 
	d="
M362.508606,38.978264 
	C355.432587,39.020515 348.812134,39.020515 342.264557,39.020515 
	C340.462219,28.830633 343.565063,25.028866 353.419495,24.962076 
	C355.909729,24.945198 358.666260,24.417601 360.815674,25.302357 
	C362.894745,26.158169 365.338379,28.282677 365.845215,30.296947 
	C366.598175,33.289501 368.054352,37.487499 362.508606,38.978264 
z"/>
<path fill="#FAFDFD" opacity="1.000000" stroke="none" 
	d="
M220.295593,27.257639 
	C226.582443,26.501289 232.655380,25.229504 238.547668,25.805559 
	C243.338593,26.273939 242.335419,31.389545 242.383942,34.879654 
	C242.433609,38.450848 239.671356,39.029266 236.785553,39.035458 
	C230.493729,39.048958 224.201859,39.039627 216.653320,39.039627 
	C217.935242,34.639832 218.969421,31.090364 220.295593,27.257639 
z"/>
</svg>