<?xml version="1.0" encoding="UTF-8"?>
<svg xmlns="http://www.w3.org/2000/svg" xmlns:xlink="http://www.w3.org/1999/xlink" width="500px" height="75px" viewBox="0 0 500 75" version="1.1">
<g id="surface1">
<path style=" stroke:none;fill-rule:nonzero;fill:rgb(100%,100%,100%);fill-opacity:1;" d="M 235.929688 17.605469 C 247.171875 17.605469 254.1875 18.683594 254.1875 34.511719 C 254.1875 41.4375 250.5 45.484375 241.867188 45.484375 L 221.722656 45.484375 C 221.722656 56.726562 223.792969 59.511719 230.714844 59.511719 C 238.21875 59.746094 245.734375 59.445312 253.195312 58.609375 L 253.195312 63.664062 C 245.855469 65.53125 238.289062 66.375 230.714844 66.179688 C 218.574219 66.179688 214.976562 60.316406 214.976562 41.609375 C 215.066406 20.300781 221.183594 17.605469 235.929688 17.605469 Z M 241.867188 38.910156 C 245.820312 38.910156 247.535156 37.472656 247.535156 34.503906 C 247.535156 25.0625 245.734375 24.253906 236.023438 24.253906 C 225.859375 24.253906 221.632812 24.339844 221.632812 38.910156 Z M 241.867188 38.910156 "/>
<path style=" stroke:none;fill-rule:nonzero;fill:rgb(100%,100%,100%);fill-opacity:1;" d="M 276.910156 17.167969 C 282.945312 17.398438 288.898438 18.617188 294.535156 20.777344 L 294.535156 0 L 301.101562 0 L 301.101562 65.734375 L 296.332031 65.734375 L 294.535156 60.328125 C 289.207031 63.648438 283.164062 65.65625 276.910156 66.183594 C 263.871094 66.183594 261.171875 52.925781 261.171875 41.9375 C 261.175781 29.777344 263.332031 17.167969 276.910156 17.167969 Z M 276.910156 59.609375 C 283.007812 59.429688 289.003906 58.011719 294.535156 55.441406 L 294.535156 26.175781 C 288.804688 24.554688 282.867188 23.765625 276.910156 23.832031 C 271.15625 23.832031 267.917969 27.347656 267.917969 42.027344 C 267.832031 53.734375 271.066406 59.609375 276.910156 59.609375 Z M 276.910156 59.609375 "/>
<path style=" stroke:none;fill-rule:nonzero;fill:rgb(100%,100%,100%);fill-opacity:1;" d="M 307.273438 19.414062 L 316.175781 17.792969 L 317.792969 4.457031 L 322.828125 4.457031 L 322.828125 17.792969 L 336.765625 17.792969 L 336.765625 24.457031 L 322.828125 24.457031 L 322.828125 48.625 C 322.828125 56.460938 324.898438 58.265625 327.953125 58.984375 C 327.953125 58.984375 335.328125 60.894531 335.957031 60.894531 L 335.957031 65.683594 L 328.042969 65.683594 C 321.117188 65.683594 316.171875 61.359375 316.171875 48.640625 L 316.171875 24.472656 L 307.273438 24.472656 Z M 307.273438 19.414062 "/>
<path style=" stroke:none;fill-rule:nonzero;fill:rgb(100%,100%,100%);fill-opacity:1;" d="M 363.65625 17.605469 C 374.898438 17.605469 381.910156 18.683594 381.910156 34.511719 C 381.910156 41.4375 378.226562 45.484375 369.589844 45.484375 L 349.445312 45.484375 C 349.445312 56.726562 351.515625 59.511719 358.53125 59.511719 C 366.035156 59.746094 373.550781 59.445312 381.015625 58.609375 L 381.015625 63.664062 C 373.671875 65.53125 366.105469 66.378906 358.53125 66.179688 C 346.390625 66.179688 342.792969 60.316406 342.792969 41.609375 C 342.792969 20.300781 348.90625 17.605469 363.65625 17.605469 Z M 369.589844 38.917969 C 373.546875 38.917969 375.257812 37.480469 375.257812 34.515625 C 375.257812 25.070312 373.460938 24.261719 363.746094 24.261719 C 353.585938 24.261719 349.445312 24.351562 349.445312 38.917969 Z M 369.589844 38.917969 "/>
<path style=" stroke:none;fill-rule:nonzero;fill:rgb(100%,100%,100%);fill-opacity:1;" d="M 404.582031 17.515625 C 411.46875 17.820312 418.328125 18.613281 425.101562 19.890625 L 425.101562 24.746094 C 425.101562 24.746094 412.515625 24.207031 404.582031 24.207031 C 399.1875 24.207031 395.496094 25.195312 395.496094 42.195312 C 395.496094 55.953125 398.105469 59.550781 404.582031 59.550781 C 412.851562 59.550781 425.714844 58.5625 425.714844 58.5625 L 425.714844 63.613281 C 418.824219 65.464844 411.710938 66.34375 404.582031 66.222656 C 395.589844 66.222656 388.84375 62.804688 388.84375 41.832031 C 388.84375 20.859375 395.394531 17.515625 404.582031 17.515625 Z M 404.582031 17.515625 "/>
<path style=" stroke:none;fill-rule:nonzero;fill:rgb(100%,100%,100%);fill-opacity:1;" d="M 433.632812 0.0898438 L 440.214844 0.0898438 L 440.214844 23.421875 C 445.703125 20.269531 450.558594 17.035156 457.839844 17.035156 C 461.878906 16.953125 465.765625 18.558594 468.566406 21.464844 C 471.371094 24.371094 472.835938 28.3125 472.609375 32.34375 L 472.609375 65.734375 L 465.941406 65.734375 L 465.941406 32.425781 C 465.941406 26.480469 462.523438 23.777344 457.832031 23.777344 C 450.636719 23.777344 447.039062 25.582031 440.207031 28.910156 L 440.207031 65.734375 L 433.539062 65.734375 Z M 433.632812 0.0898438 "/>
<path style=" stroke:none;fill-rule:nonzero;fill:rgb(100%,0%,2.352941%);fill-opacity:1;" d="M 477.984375 59.167969 L 500 59.167969 L 500 65.835938 L 477.984375 65.835938 Z M 477.984375 59.167969 "/>
<path style=" stroke:none;fill-rule:nonzero;fill:rgb(100%,46.27451%,0%);fill-opacity:1;" d="M 71.511719 39.1875 C 71.511719 19.414062 55.503906 3.378906 35.753906 3.378906 C 16.007812 3.378906 0 19.414062 0 39.1875 C 0 58.964844 16.007812 74.996094 35.753906 74.996094 C 55.503906 74.996094 71.511719 58.964844 71.511719 39.1875 Z M 71.511719 39.1875 "/>
<path style=" stroke:none;fill-rule:nonzero;fill:rgb(100%,79.607843%,0%);fill-opacity:1;" d="M 35.828125 5.394531 C 19.335938 5.394531 5.964844 18.757812 5.953125 35.25 C 5.953125 36.832031 6.078125 38.410156 6.332031 39.972656 C 10.839844 29.214844 21.484375 22.320312 33.148438 22.617188 C 42.878906 22.460938 52.039062 27.1875 57.554688 35.207031 C 60.449219 35.125 63.269531 36.113281 65.484375 37.984375 C 65.484375 37.066406 65.609375 36.1875 65.609375 35.230469 C 65.578125 18.785156 52.269531 5.457031 35.828125 5.394531 "/>
<path style=" stroke:none;fill-rule:nonzero;fill:rgb(100%,0%,2.352941%);fill-opacity:1;" d="M 65.574219 38.109375 C 63.363281 36.238281 60.539062 35.25 57.644531 35.332031 C 48.851562 35.332031 39.660156 43.027344 36.960938 52.4375 C 35.535156 56.664062 36.152344 61.3125 38.628906 65.023438 C 37.726562 65.023438 36.832031 65.148438 35.910156 65.148438 C 21.234375 65.144531 8.734375 54.480469 6.421875 39.984375 C 5.324219 42.75 4.757812 45.695312 4.753906 48.667969 C 4.847656 55.804688 8.019531 62.554688 13.460938 67.175781 C 28.386719 79.113281 50.066406 77.1875 62.652344 62.804688 C 64.917969 60.207031 66.800781 57.300781 68.246094 54.167969 C 68.472656 53.582031 68.664062 52.980469 68.820312 52.371094 C 70.640625 47.355469 69.378906 41.738281 65.585938 37.984375 "/>
<path style=" stroke:none;fill-rule:nonzero;fill:rgb(100%,100%,100%);fill-opacity:1;" d="M 198.253906 48.8125 C 192.695312 48.8125 190.121094 45.949219 190.121094 40.378906 L 190.121094 6.148438 L 173.070312 6.148438 L 173.070312 31.554688 C 169.085938 22.949219 160.460938 17.441406 150.976562 17.441406 C 141.492188 17.441406 132.867188 22.949219 128.878906 31.554688 L 128.878906 18.003906 L 112.046875 18.003906 L 112.046875 41.929688 C 112.046875 46.253906 109.78125 49.132812 105.96875 49.132812 C 102.160156 49.132812 99.890625 46.214844 99.890625 41.929688 L 99.890625 18.003906 L 82.839844 18.003906 L 82.839844 42.148438 C 82.839844 56.960938 91.832031 66.273438 105.96875 66.273438 C 116.308594 66.847656 125.570312 59.921875 127.945312 49.84375 C 131.300781 59.613281 140.453125 66.203125 150.78125 66.289062 C 161.109375 66.371094 170.367188 59.933594 173.882812 50.222656 C 176.398438 61.035156 184.675781 65.898438 195.628906 65.898438 L 199.945312 65.898438 L 199.945312 48.8125 Z M 150.984375 49.175781 C 148.015625 49.179688 145.335938 47.394531 144.199219 44.652344 C 143.0625 41.910156 143.6875 38.753906 145.789062 36.652344 C 147.890625 34.554688 151.046875 33.929688 153.789062 35.070312 C 156.53125 36.210938 158.3125 38.890625 158.304688 41.859375 C 158.296875 45.898438 155.023438 49.171875 150.984375 49.175781 Z M 150.984375 49.175781 "/>
</g>
</svg>
