<?xml version="1.0" encoding="UTF-8"?>
<svg xmlns="http://www.w3.org/2000/svg" xmlns:xlink="http://www.w3.org/1999/xlink" width="25px" height="24px" viewBox="0 0 24 24" version="1.1">
<g id="surface1">
<path style=" stroke:none;fill-rule:evenodd;fill:rgb(0%,0%,0%);fill-opacity:1;" d="M 12.261719 12.265625 C 12.652344 12.265625 12.945312 11.933594 12.945312 11.566406 C 12.945312 11.199219 12.652344 10.867188 12.261719 10.867188 C 11.871094 10.867188 11.574219 11.199219 11.574219 11.566406 C 11.574219 11.933594 11.871094 12.265625 12.261719 12.265625 Z M 10.207031 10.332031 C 10.597656 10.332031 10.890625 10 10.890625 9.632812 C 10.890625 9.234375 10.597656 8.933594 10.207031 8.933594 C 9.816406 8.933594 9.523438 9.265625 9.523438 9.632812 C 9.523438 10.035156 9.816406 10.332031 10.207031 10.332031 Z M 12.261719 10.332031 C 12.652344 10.332031 12.945312 10 12.945312 9.632812 C 12.945312 9.234375 12.652344 8.933594 12.261719 8.933594 C 11.871094 8.933594 11.574219 9.265625 11.574219 9.632812 C 11.574219 10.035156 11.871094 10.332031 12.261719 10.332031 Z M 14.316406 10.332031 C 14.707031 10.332031 15 10 15 9.632812 C 15 9.234375 14.707031 8.933594 14.316406 8.933594 C 13.925781 8.933594 13.628906 9.265625 13.628906 9.632812 C 13.628906 10.035156 13.957031 10.332031 14.316406 10.332031 Z M 10.207031 8.433594 C 10.597656 8.433594 10.890625 8.101562 10.890625 7.734375 C 10.890625 7.335938 10.597656 7.035156 10.207031 7.035156 C 9.816406 7.035156 9.523438 7.367188 9.523438 7.734375 C 9.523438 8.132812 9.816406 8.433594 10.207031 8.433594 Z M 12.261719 8.433594 C 12.652344 8.433594 12.945312 8.101562 12.945312 7.734375 C 12.945312 7.335938 12.652344 7.035156 12.261719 7.035156 C 11.871094 7.035156 11.574219 7.367188 11.574219 7.734375 C 11.574219 8.132812 11.871094 8.433594 12.261719 8.433594 Z M 14.316406 8.433594 C 14.707031 8.433594 15 8.101562 15 7.734375 C 15 7.335938 14.707031 7.035156 14.316406 7.035156 C 13.925781 7.035156 13.628906 7.367188 13.628906 7.734375 C 13.628906 8.132812 13.957031 8.433594 14.316406 8.433594 Z M 12.261719 6.535156 C 12.652344 6.535156 12.945312 6.199219 12.945312 5.835938 C 12.945312 5.433594 12.652344 5.132812 12.261719 5.132812 C 11.871094 5.132812 11.574219 5.46875 11.574219 5.835938 C 11.574219 6.199219 11.871094 6.535156 12.261719 6.535156 Z M 14.316406 6.535156 C 14.707031 6.535156 15 6.199219 15 5.835938 C 15 5.433594 14.707031 5.132812 14.316406 5.132812 C 13.925781 5.132812 13.628906 5.46875 13.628906 5.835938 C 13.628906 6.199219 13.957031 6.535156 14.316406 6.535156 Z M 10.207031 6.535156 C 10.597656 6.535156 10.890625 6.199219 10.890625 5.835938 C 10.890625 5.433594 10.597656 5.132812 10.207031 5.132812 C 9.816406 5.132812 9.523438 5.46875 9.523438 5.835938 C 9.523438 6.199219 9.816406 6.535156 10.207031 6.535156 Z M 12 24 L 0 0 L 24 0 Z M 12 24 "/>
</g>
</svg>
